<svg width="64" height="64" viewBox="0 0 64 64" fill="none" xmlns="http://www.w3.org/2000/svg">
<path d="M12.8 54.4C19.8692 54.4 25.6 48.6692 25.6 41.6C25.6 34.5308 19.8692 28.8 12.8 28.8C5.73075 28.8 0 34.5308 0 41.6C0 48.6692 5.73075 54.4 12.8 54.4Z" fill="#909090"/>
<path d="M43.2 64C47.6183 64 51.2 60.4183 51.2 56C51.2 51.5817 47.6183 48 43.2 48C38.7817 48 35.2 51.5817 35.2 56C35.2 60.4183 38.7817 64 43.2 64Z" fill="#909090"/>
<path d="M44.8 38.4C55.4039 38.4 64 29.8039 64 19.2C64 8.59613 55.4039 0 44.8 0C34.1961 0 25.6 8.59613 25.6 19.2C25.6 29.8039 34.1961 38.4 44.8 38.4Z" fill="#909090"/>
</svg>
