<svg width="21" height="21" viewBox="0 0 21 21" fill="none" xmlns="http://www.w3.org/2000/svg">
<path d="M9.45 16.8H11.55V14.7H9.45V16.8ZM10.5 0C4.704 0 0 4.704 0 10.5C0 16.296 4.704 21 10.5 21C16.296 21 21 16.296 21 10.5C21 4.704 16.296 0 10.5 0ZM10.5 18.9C5.8695 18.9 2.1 15.1305 2.1 10.5C2.1 5.8695 5.8695 2.1 10.5 2.1C15.1305 2.1 18.9 5.8695 18.9 10.5C18.9 15.1305 15.1305 18.9 10.5 18.9ZM10.5 4.2C8.1795 4.2 6.3 6.0795 6.3 8.4H8.4C8.4 7.245 9.345 6.3 10.5 6.3C11.655 6.3 12.6 7.245 12.6 8.4C12.6 10.5 9.45 10.2375 9.45 13.65H11.55C11.55 11.2875 14.7 11.025 14.7 8.4C14.7 6.0795 12.8205 4.2 10.5 4.2Z" fill="black"/>
</svg>
