<svg width="67" height="69" viewBox="0 0 67 69" fill="none" xmlns="http://www.w3.org/2000/svg">
<path d="M59.1147 37.8781C59.2582 36.8 59.3299 35.6859 59.3299 34.5C59.3299 33.35 59.2582 32.2 59.0788 31.1219L66.3614 25.4437C67.0072 24.9406 67.1866 23.9703 66.7919 23.2516L59.9039 11.3203C59.4734 10.5297 58.5766 10.2781 57.7873 10.5297L49.2132 13.9797C47.4195 12.6141 45.5181 11.4641 43.4015 10.6016L42.11 1.47344C41.9665 0.610937 41.249 0 40.388 0H26.612C25.751 0 25.0694 0.610937 24.9259 1.47344L23.6344 10.6016C21.5178 11.4641 19.5805 12.65 17.8227 13.9797L9.24855 10.5297C8.45931 10.2422 7.56243 10.5297 7.13194 11.3203L0.279826 23.2516C-0.150673 24.0062 -0.00717413 24.9406 0.710324 25.4437L7.99293 31.1219C7.81356 32.2 7.67006 33.3859 7.67006 34.5C7.67006 35.6141 7.74181 36.8 7.92118 37.8781L0.638574 43.5563C-0.00717413 44.0594 -0.186548 45.0297 0.208076 45.7484L7.09606 57.6797C7.52656 58.4703 8.42343 58.7219 9.21268 58.4703L17.7868 55.0203C19.5805 56.3859 21.4819 57.5359 23.5985 58.3984L24.89 67.5266C25.0694 68.3891 25.751 69 26.612 69H40.388C41.249 69 41.9665 68.3891 42.0741 67.5266L43.3656 58.3984C45.4822 57.5359 47.4195 56.3859 49.1773 55.0203L57.7514 58.4703C58.5407 58.7578 59.4376 58.4703 59.8681 57.6797L66.7561 45.7484C67.1865 44.9578 67.0072 44.0594 66.3256 43.5563L59.1147 37.8781ZM33.5 47.4375C26.3968 47.4375 20.585 41.6156 20.585 34.5C20.585 27.3844 26.3968 21.5625 33.5 21.5625C40.6032 21.5625 46.415 27.3844 46.415 34.5C46.415 41.6156 40.6032 47.4375 33.5 47.4375Z" fill="#909090"/>
</svg>
