<svg width="750" height="500" viewBox="0 0 750 500" fill="none" xmlns="http://www.w3.org/2000/svg">
<path d="M58.1205 117.63C57.249 117.629 56.3858 117.799 55.5802 118.132C54.7747 118.464 54.0426 118.952 53.4259 119.568C52.8092 120.184 52.3199 120.915 51.9861 121.72C51.6523 122.525 51.4805 123.388 51.4805 124.26V457.79H64.7505V124.26C64.7505 123.389 64.579 122.527 64.2458 121.723C63.9126 120.918 63.4242 120.187 62.8086 119.572C62.1929 118.956 61.4621 118.468 60.6577 118.135C59.8533 117.801 58.9911 117.63 58.1205 117.63Z" fill="#263238"/>
<path d="M78.8483 140H38.1517C35.8588 140 34 141.853 34 144.138V260.246C34 262.532 35.8588 264.385 38.1517 264.385H78.8483C81.1412 264.385 83 262.532 83 260.246V144.138C83 141.853 81.1412 140 78.8483 140Z" fill="#263238"/>
<path d="M58.4991 179.924C66.0408 179.924 72.1545 173.811 72.1545 166.269C72.1545 158.727 66.0408 152.614 58.4991 152.614C50.9575 152.614 44.8438 158.727 44.8438 166.269C44.8438 173.811 50.9575 179.924 58.4991 179.924Z" fill="#FF553C"/>
<path d="M58.4991 216.849C66.0408 216.849 72.1545 210.735 72.1545 203.194C72.1545 195.652 66.0408 189.538 58.4991 189.538C50.9575 189.538 44.8438 195.652 44.8438 203.194C44.8438 210.735 50.9575 216.849 58.4991 216.849Z" fill="#E0E0E0"/>
<path d="M58.4991 253.774C66.0408 253.774 72.1545 247.66 72.1545 240.118C72.1545 232.577 66.0408 226.463 58.4991 226.463C50.9575 226.463 44.8438 232.577 44.8438 240.118C44.8438 247.66 50.9575 253.774 58.4991 253.774Z" fill="#455A64"/>
<path d="M70.3497 172.665C70.7138 171.227 70.9545 169.759 71.0693 168.279C71.1689 166.509 70.9166 164.738 70.3275 163.071C69.7384 161.405 68.8249 159.878 67.6423 158.583C66.4597 157.289 65.0327 156.253 63.4476 155.54C61.8625 154.827 60.1524 154.45 58.4209 154.433C56.9734 154.463 55.5301 154.606 54.1035 154.859C54.1035 154.859 54.4553 154.613 55.1909 154.351C56.2271 154.022 57.304 153.845 58.3889 153.827C60.224 153.767 62.0506 154.108 63.7463 154.829C65.442 155.549 66.9678 156.632 68.2214 158.005C69.475 159.378 70.4275 161.009 71.0152 162.789C71.6029 164.57 71.8121 166.458 71.6289 168.328C71.5393 169.449 71.2915 170.552 70.8934 171.601C70.6215 172.321 70.3977 172.697 70.3497 172.665Z" fill="white"/>
<path d="M70.3544 209.103C70.7154 207.66 70.9561 206.188 71.0742 204.704C71.1738 202.937 70.9214 201.167 70.3322 199.502C69.743 197.837 68.8292 196.311 67.6462 195.018C66.4633 193.725 65.0358 192.69 63.4503 191.978C61.8647 191.265 60.1542 190.889 58.4222 190.872C56.9743 190.903 55.5307 191.045 54.1035 191.297C54.4338 191.063 54.8021 190.892 55.1912 190.79C56.2278 190.461 57.305 190.285 58.3902 190.267C60.2288 190.192 62.0615 190.524 63.7633 191.239C65.4651 191.954 66.996 193.036 68.2515 194.411C69.507 195.786 70.4577 197.422 71.0387 199.207C71.6197 200.992 71.8173 202.883 71.618 204.753C71.5283 205.874 71.2805 206.975 70.8822 208.023C70.782 208.417 70.6022 208.784 70.3544 209.103Z" fill="white"/>
<path d="M70.356 245.537C70.7202 244.195 70.9611 242.825 71.0758 241.444C71.1755 239.793 70.9231 238.139 70.3338 236.584C69.7445 235.029 68.8306 233.604 67.6476 232.396C66.4645 231.188 65.0369 230.222 63.4512 229.556C61.8655 228.891 60.1548 228.539 58.4226 228.523C56.9746 228.553 55.5308 228.686 54.1035 228.92C54.1035 228.92 54.4555 228.676 55.1913 228.447C56.2284 228.141 57.3054 227.977 58.3906 227.958C60.2279 227.889 62.0592 228.198 63.7599 228.866C65.4607 229.533 66.9908 230.542 68.2462 231.825C69.5016 233.107 70.4528 234.633 71.0349 236.298C71.6171 237.963 71.8165 239.729 71.6197 241.474C71.536 242.522 71.288 243.551 70.8839 244.529C70.6439 245.216 70.404 245.567 70.356 245.537Z" fill="white"/>
<path d="M78.591 256.846C78.2591 256.846 77.9746 231.808 77.9746 200.936C77.9746 170.064 78.2591 145.026 78.591 145.026C78.9228 145.026 79.231 170.048 79.231 200.936C79.231 231.824 78.9465 256.846 78.591 256.846Z" fill="white"/>
<path d="M389.201 107.3C389.661 103.93 384.921 101.16 381.351 100.88C379.651 100.74 377.881 101 376.271 100.44C372.781 99.2201 371.391 94.7101 367.981 93.2701C365.431 92.2001 362.501 93.1601 359.981 94.4001C357.461 95.6401 355.071 97.2101 352.311 97.4001C349.911 97.5601 347.311 96.6701 345.211 97.8401C343.641 98.7101 342.821 100.51 341.381 101.58C339.881 102.506 338.143 102.975 336.381 102.93C334.623 102.892 332.874 103.18 331.221 103.78C329.631 104.51 328.311 106.19 328.641 107.91L389.201 107.3Z" fill="#FAFAFA"/>
<path d="M708 137.56C708.46 134.2 703.71 131.43 700.15 131.15C698.44 131.01 696.68 131.27 695.07 130.71C691.57 129.49 690.18 124.98 686.77 123.54C684.23 122.47 681.29 123.43 678.82 124.67C676.35 125.91 673.92 127.47 671.16 127.67C668.76 127.82 666.16 126.93 664.05 128.11C662.49 128.98 661.67 130.78 660.23 131.85C658.73 132.775 656.992 133.244 655.23 133.2C653.476 133.161 651.729 133.45 650.08 134.05C648.49 134.77 647.17 136.46 647.5 138.18L708 137.56Z" fill="#FAFAFA"/>
<path d="M714.391 470.43C714.391 470.57 560.961 470.69 371.741 470.69C182.521 470.69 29.0605 470.57 29.0605 470.43C29.0605 470.29 182.451 470.17 371.741 470.17C561.031 470.17 714.391 470.28 714.391 470.43Z" fill="#263238"/>
<path d="M18.8809 470.43H19.6909H22.0809L31.2709 470.38L65.1709 470.3L177.751 470.22L177.491 470.48V457.79L177.751 458.05L65.1609 458L31.2709 457.92L22.0809 457.87H19.6909H18.8809C18.8809 457.87 19.1509 457.87 19.6909 457.87H22.0809L31.2709 457.82L65.1609 457.74L177.751 457.66H178.001V470.82H177.741L65.1609 470.74L31.2609 470.66H22.0709H19.6809L18.8809 470.43Z" fill="#263238"/>
<path d="M164.102 470.43C163.755 466.224 163.755 461.996 164.102 457.79C164.448 461.996 164.448 466.224 164.102 470.43Z" fill="#263238"/>
<path d="M91.2112 470.43C90.8645 466.224 90.8645 461.996 91.2112 457.79C91.5579 461.996 91.5579 466.224 91.2112 470.43Z" fill="#263238"/>
<path d="M729.121 470.43H728.291H725.831H716.381L681.521 470.51L565.781 470.59H565.521V457.53H565.781L681.531 457.61L716.381 457.69L725.831 457.74L716.381 457.79L681.531 457.87L565.781 457.95L566.041 457.69V470.33L565.781 470.07L681.521 470.15L716.381 470.23L725.831 470.28H728.291L729.121 470.43Z" fill="#263238"/>
<path d="M646.131 470.43C645.784 466.224 645.784 461.996 646.131 457.79C646.478 461.996 646.478 466.224 646.131 470.43Z" fill="#263238"/>
<path d="M719 470.43C718.654 466.224 718.654 461.996 719 457.79C719.347 461.996 719.347 466.224 719 470.43Z" fill="#263238"/>
<path d="M571.811 456.15C571.811 456.29 484.331 456.41 376.431 456.41C268.531 456.41 181.031 456.29 181.031 456.15C181.031 456.01 268.501 455.89 376.431 455.89C484.361 455.89 571.811 456 571.811 456.15Z" fill="white"/>
<path d="M578.179 417.46C579.096 417.898 579.914 418.515 580.586 419.277C581.258 420.038 581.769 420.927 582.09 421.89C582.721 423.823 582.899 425.877 582.609 427.89C582.169 431.78 579.959 435.72 577.609 438.83C574.329 435.97 573.609 430.97 573.349 428.42C572.999 424.42 574.81 416.86 578.21 417.42" fill="#FF553C"/>
<path d="M581.391 445.25C581.166 444.137 581.24 442.984 581.606 441.91C581.971 440.835 582.614 439.876 583.471 439.13C584.336 438.397 585.339 437.842 586.42 437.499C587.502 437.156 588.64 437.03 589.771 437.13C590.296 437.124 590.815 437.232 591.294 437.448C591.772 437.664 592.198 437.982 592.541 438.38C592.791 438.802 592.924 439.284 592.924 439.775C592.924 440.266 592.791 440.748 592.541 441.17C592.04 442.005 591.33 442.695 590.481 443.17C587.641 444.95 584.561 446.17 581.351 445.17" fill="#FF553C"/>
<path d="M577.18 457.19C577.198 456.92 577.238 456.653 577.3 456.39C577.4 455.83 577.54 455.1 577.7 454.23C578.062 451.821 578.816 449.487 579.93 447.32C581.099 445.151 582.825 443.332 584.93 442.05C585.563 441.683 586.233 441.385 586.93 441.16C587.17 441.08 587.38 441.05 587.51 441.01C587.579 440.996 587.65 440.996 587.72 441.01C586.778 441.339 585.871 441.757 585.01 442.26C582.989 443.568 581.334 445.367 580.2 447.49C579.101 449.633 578.329 451.929 577.91 454.3C577.71 455.21 577.55 455.94 577.43 456.45C577.37 456.704 577.287 456.952 577.18 457.19Z" fill="#263238"/>
<path d="M577.31 423.31C577.32 423.426 577.32 423.544 577.31 423.66L577.37 424.66C577.37 425.53 577.46 426.79 577.51 428.35C577.61 431.47 577.69 435.79 577.67 440.55C577.65 445.31 577.54 449.63 577.41 452.75C577.34 454.31 577.28 455.57 577.23 456.44C577.23 456.85 577.23 457.18 577.16 457.44C577.17 457.556 577.17 457.674 577.16 457.79C577.145 457.674 577.145 457.556 577.16 457.44C577.16 457.18 577.16 456.85 577.16 456.44C577.16 455.54 577.21 454.28 577.25 452.75C577.32 449.63 577.41 445.32 577.43 440.56C577.45 435.8 577.43 431.49 577.35 428.37C577.35 426.84 577.35 425.58 577.3 424.67C577.3 424.26 577.3 423.93 577.3 423.67C577.287 423.55 577.29 423.429 577.31 423.31Z" fill="#263238"/>
<path d="M575.709 447.62C575.314 445.264 574.362 443.037 572.932 441.124C571.502 439.211 569.636 437.667 567.489 436.62C566.399 436.1 564.959 435.75 564.059 436.62C563.159 437.49 563.359 438.9 563.809 440.04C564.769 442.394 566.405 444.411 568.51 445.835C570.616 447.259 573.097 448.026 575.639 448.04" fill="#FF553C"/>
<path d="M568 440.29C568.243 440.365 568.478 440.465 568.7 440.59C568.971 440.709 569.231 440.85 569.48 441.01C569.826 441.199 570.16 441.409 570.48 441.64C570.874 441.907 571.255 442.194 571.62 442.5C572.03 442.82 572.42 443.2 572.84 443.6C573.721 444.509 574.496 445.515 575.15 446.6C575.791 447.687 576.305 448.845 576.68 450.05C576.842 450.575 576.972 451.109 577.07 451.65C577.162 452.119 577.226 452.593 577.26 453.07C577.32 453.51 577.26 453.91 577.32 454.25C577.337 454.546 577.337 454.843 577.32 455.14C577.314 455.395 577.287 455.649 577.24 455.9C577.17 455.9 577.24 454.81 577.09 453.09C577.043 452.622 576.966 452.158 576.86 451.7C576.758 451.169 576.625 450.645 576.46 450.13C576.081 448.95 575.571 447.817 574.94 446.75C574.296 445.69 573.538 444.705 572.68 443.81C572.307 443.419 571.913 443.048 571.5 442.7C571.146 442.386 570.776 442.093 570.39 441.82C569 440.79 568 440.34 568 440.29Z" fill="#263238"/>
<path d="M98.8008 381.28C102.381 406.82 105.967 432.357 109.561 457.89L112.361 457.98C110.571 432 108.671 405.42 98.8008 381.28Z" fill="#455A64"/>
<path d="M128.68 377.69C121.16 385.93 118.14 397.25 116.24 408.23C113.54 423.81 113.29 442.23 114.1 457.98L118.03 458.07C116.474 430.845 120.088 403.571 128.68 377.69Z" fill="#455A64"/>
<path d="M100.77 426.61C99.9098 422.81 98.9198 418.95 96.7698 415.72C93.8398 411.35 89.0698 408.59 84.2698 406.44C79.4698 404.29 74.4298 402.57 70.0898 399.59C74.9298 407.52 85.9098 409.59 91.4998 417.05C94.2798 420.74 95.4398 425.37 96.4998 429.86C98.8698 439.65 100.34 448.13 102.71 457.92H105.89C104.855 447.385 103.145 436.926 100.77 426.61Z" fill="#455A64"/>
<path d="M120.891 458C120.891 458 123.591 427.58 125.591 422C127.591 416.42 146.471 401 146.291 401.7C146.111 402.4 132.121 419.32 130.131 422.77C128.141 426.22 124.681 458 124.681 458H120.891Z" fill="#455A64"/>
<path d="M673.379 344.98H668.529V435.31H673.379V344.98Z" fill="#E0E0E0"/>
<path d="M673.379 435.32C673.379 435.32 673.379 435.15 673.379 434.84C673.379 434.53 673.379 434.05 673.379 433.46C673.379 432.24 673.379 430.46 673.379 428.22C673.379 423.65 673.379 417.08 673.309 408.94C673.309 392.66 673.239 370.11 673.199 344.94L673.459 345.2H668.609C669.119 344.68 668.749 345.07 668.869 344.97V352.83C668.869 355.443 668.869 358.017 668.869 360.55C668.869 365.63 668.869 370.55 668.869 375.35C668.869 384.89 668.869 393.75 668.869 401.65C668.809 417.4 668.759 429.32 668.739 435.27L668.659 435.2H672.299H673.199H673.509H673.229H672.339H668.659H668.579V435.12C668.579 429.17 668.509 417.25 668.449 401.5C668.449 393.6 668.449 384.74 668.449 375.2C668.449 370.43 668.449 365.48 668.449 360.4V345C668.569 344.87 668.179 345.23 668.709 344.71H673.819V345C673.819 370.21 673.739 392.82 673.709 409.15C673.709 417.26 673.649 423.82 673.629 428.37C673.629 430.6 673.629 432.37 673.629 433.55C673.629 434.13 673.629 434.55 673.629 434.89C673.629 435.23 673.379 435.32 673.379 435.32Z" fill="#263238"/>
<path d="M674.65 457.79H667.25V435.24C667.25 434.76 667.441 434.3 667.78 433.96C668.12 433.621 668.58 433.43 669.06 433.43H672.84C673.32 433.43 673.78 433.621 674.12 433.96C674.459 434.3 674.65 434.76 674.65 435.24V457.79Z" fill="#E0E0E0"/>
<path d="M674.649 457.79C674.649 457.79 674.649 457.55 674.649 457.12C674.649 456.69 674.649 456.04 674.649 455.29C674.649 453.65 674.599 451.39 674.569 448.63C674.539 445.87 674.569 442.51 674.489 438.84C674.489 437.92 674.489 436.98 674.489 436.02V435.3C674.494 435.085 674.456 434.871 674.379 434.67C674.298 434.469 674.176 434.287 674.021 434.135C673.866 433.984 673.682 433.866 673.479 433.79C673.014 433.682 672.534 433.648 672.059 433.69H670.509C670.009 433.69 669.439 433.69 668.969 433.69C668.742 433.717 668.524 433.794 668.33 433.915C668.137 434.036 667.972 434.198 667.849 434.39C667.714 434.605 667.632 434.848 667.609 435.1C667.609 435.35 667.609 435.68 667.609 435.96V441.1C667.609 443.32 667.609 445.44 667.609 447.45C667.609 451.45 667.609 454.95 667.539 457.77L667.369 457.6L672.769 457.69L674.239 457.74H674.769C674.612 457.752 674.455 457.752 674.299 457.74H672.869L667.369 457.83H667.209V457.66C667.209 454.84 667.209 451.33 667.139 447.34C667.139 445.34 667.139 443.21 667.139 440.99V437.59C667.139 437.02 667.139 436.44 667.139 435.85C667.139 435.55 667.139 435.28 667.139 434.95C667.158 434.595 667.268 434.25 667.459 433.95C667.627 433.696 667.848 433.481 668.107 433.321C668.366 433.16 668.656 433.057 668.959 433.02C669.549 433.02 670.029 433.02 670.559 433.02H672.879C673.162 433.007 673.445 433.055 673.709 433.16C673.977 433.26 674.221 433.415 674.426 433.615C674.631 433.814 674.792 434.055 674.899 434.32C674.994 434.583 675.042 434.86 675.039 435.14V436C675.039 437 675.039 437.94 675.039 438.87C675.039 442.58 675.039 445.93 674.959 448.77C674.879 451.61 674.899 453.77 674.879 455.39C674.879 456.12 674.879 456.71 674.879 457.17C674.824 457.384 674.747 457.592 674.649 457.79Z" fill="#263238"/>
<path d="M664.906 268.542L627.195 308.688C625.947 310.016 626.012 312.105 627.341 313.353L667.487 351.064C668.815 352.311 670.904 352.246 672.151 350.918L709.862 310.772C711.11 309.443 711.045 307.355 709.716 306.107L669.57 268.396C668.242 267.148 666.154 267.214 664.906 268.542Z" fill="#FF553C"/>
<path d="M669.449 347.11C668.261 347.114 667.118 346.659 666.259 345.84L631.469 313C631.174 312.721 630.937 312.387 630.771 312.016C630.605 311.645 630.514 311.246 630.503 310.84C630.492 310.434 630.561 310.03 630.706 309.651C630.851 309.272 631.069 308.925 631.349 308.63L664.239 273.84C664.658 273.397 665.159 273.042 665.716 272.793C666.272 272.544 666.872 272.408 667.481 272.391C668.091 272.374 668.697 272.478 669.266 272.696C669.835 272.913 670.356 273.241 670.799 273.66L704.459 305.48C704.901 305.899 705.257 306.401 705.506 306.957C705.754 307.514 705.891 308.113 705.907 308.723C705.924 309.332 705.821 309.938 705.603 310.507C705.385 311.077 705.058 311.597 704.639 312.04L672.819 345.7C672.382 346.151 671.858 346.508 671.278 346.751C670.699 346.993 670.077 347.115 669.449 347.11ZM666.599 345.48C667 345.856 667.471 346.15 667.986 346.344C668.501 346.538 669.049 346.628 669.599 346.61C670.143 346.597 670.68 346.476 671.178 346.255C671.675 346.033 672.124 345.716 672.499 345.32L704.319 311.66C705.072 310.86 705.477 309.793 705.445 308.695C705.414 307.596 704.947 306.555 704.149 305.8L670.449 274C669.651 273.246 668.587 272.839 667.491 272.869C666.394 272.899 665.353 273.363 664.599 274.16L631.709 308.95C631.239 309.45 630.986 310.115 631.005 310.801C631.024 311.486 631.313 312.136 631.809 312.61L666.599 345.48Z" fill="white"/>
<path d="M676.55 329.31H672.64V311.22C672.635 309.241 671.846 307.345 670.446 305.947C669.046 304.549 667.149 303.762 665.17 303.76H654.91V299.85H665.17C668.187 299.85 671.08 301.047 673.214 303.179C675.347 305.311 676.548 308.203 676.55 311.22V329.31Z" fill="white"/>
<path d="M663.969 294.61V308.21L650.529 301.8L663.969 294.61Z" fill="white"/>
<g opacity="0.3">
<path d="M664.509 269.09L627.729 308C626.988 308.786 626.589 309.833 626.619 310.913C626.649 311.993 627.106 313.017 627.889 313.76L666.789 350.54C667.134 350.896 667.548 351.178 668.005 351.369C668.463 351.56 668.954 351.655 669.449 351.65C670.859 351.45 667.629 267.83 667.629 267.83C667.047 267.778 666.46 267.865 665.917 268.084C665.375 268.303 664.892 268.648 664.509 269.09Z" fill="black"/>
</g>
<path d="M140.37 344.98H135.52V435.31H140.37V344.98Z" fill="#E0E0E0"/>
<path d="M140.369 435.32C140.369 435.32 140.369 435.15 140.369 434.84C140.369 434.53 140.369 434.05 140.369 433.46C140.369 432.24 140.369 430.46 140.369 428.22C140.369 423.65 140.319 417.08 140.289 408.94C140.289 392.66 140.219 370.11 140.179 344.94L140.439 345.2H135.599C136.109 344.68 135.739 345.07 135.849 344.97V360.55C135.849 365.63 135.849 370.55 135.849 375.35C135.849 384.89 135.849 393.75 135.849 401.65C135.789 417.4 135.739 429.32 135.719 435.27L135.639 435.2H139.279H140.179H140.489H140.209H139.329H135.639H135.559V435.12C135.559 429.17 135.489 417.25 135.429 401.5C135.429 393.6 135.429 384.74 135.429 375.2C135.429 370.43 135.429 365.48 135.429 360.4V345C135.549 344.87 135.169 345.23 135.699 344.71H140.799V345C140.799 370.21 140.719 392.82 140.689 409.15C140.689 417.26 140.629 423.82 140.609 428.37C140.609 430.6 140.609 432.37 140.609 433.55C140.609 434.13 140.609 434.55 140.609 434.89C140.609 435.23 140.369 435.32 140.369 435.32Z" fill="#263238"/>
<path d="M141.64 457.79H134.25V435.24C134.25 434.76 134.441 434.3 134.78 433.96C135.12 433.621 135.58 433.43 136.06 433.43H139.83C140.31 433.43 140.77 433.621 141.11 433.96C141.449 434.3 141.64 434.76 141.64 435.24V457.79Z" fill="#E0E0E0"/>
<path d="M141.639 457.79C141.627 457.567 141.627 457.343 141.639 457.12C141.639 456.65 141.639 456.04 141.639 455.29C141.639 453.65 141.639 451.39 141.549 448.63C141.459 445.87 141.549 442.51 141.469 438.84C141.469 437.92 141.469 436.98 141.469 436.02V435.3C141.474 435.085 141.437 434.871 141.359 434.67C141.279 434.47 141.159 434.289 141.006 434.138C140.853 433.986 140.67 433.868 140.469 433.79C140.004 433.683 139.525 433.649 139.049 433.69H137.499C136.989 433.69 136.419 433.69 135.949 433.69C135.723 433.718 135.505 433.796 135.312 433.917C135.119 434.037 134.954 434.199 134.829 434.39C134.695 434.605 134.613 434.848 134.589 435.1C134.589 435.35 134.589 435.68 134.589 435.96V437.7C134.589 438.86 134.589 439.99 134.589 441.1C134.589 443.32 134.589 445.44 134.589 447.45C134.589 451.45 134.589 454.95 134.529 457.77L134.359 457.6L139.749 457.69L141.219 457.74H141.749C141.593 457.752 141.436 457.752 141.279 457.74H139.849L134.359 457.83H134.189V457.66C134.189 454.84 134.189 451.33 134.119 447.34C134.119 445.34 134.119 443.223 134.119 440.99V436C134.119 435.7 134.119 435.43 134.119 435.1C134.153 434.623 134.353 434.174 134.683 433.829C135.014 433.484 135.454 433.265 135.929 433.21C136.519 433.21 136.999 433.21 137.539 433.21H139.849C140.136 433.199 140.422 433.246 140.689 433.35C140.957 433.448 141.201 433.602 141.405 433.802C141.608 434.002 141.767 434.244 141.869 434.51C141.97 434.771 142.017 435.05 142.009 435.33V436C142.009 437 142.009 437.94 142.009 438.87C142.009 442.58 142.009 445.93 141.939 448.77C141.869 451.61 141.869 453.77 141.849 455.39C141.849 456.12 141.849 456.71 141.849 457.17C141.809 457.386 141.739 457.595 141.639 457.79Z" fill="#263238"/>
<path d="M118.349 282.15L100.999 310.88C100.539 311.633 100.295 312.498 100.295 313.38C100.295 314.262 100.539 315.127 100.999 315.88L118.339 344.62C118.769 345.331 119.375 345.919 120.098 346.327C120.822 346.735 121.638 346.95 122.469 346.95H154.469C155.298 346.949 156.113 346.734 156.835 346.326C157.557 345.917 158.161 345.33 158.589 344.62L175.999 315.79C176.442 315.06 176.682 314.224 176.695 313.37C176.707 312.515 176.491 311.673 176.069 310.93L159.899 282.27C159.481 281.526 158.873 280.907 158.137 280.476C157.4 280.046 156.562 279.819 155.709 279.82H122.479C121.648 279.819 120.831 280.032 120.107 280.441C119.383 280.849 118.778 281.438 118.349 282.15Z" fill="#FF553C"/>
<path d="M152.87 344.71H123.22C122.415 344.701 121.626 344.488 120.927 344.091C120.227 343.694 119.64 343.126 119.22 342.44L103.15 315.81C102.703 315.075 102.467 314.231 102.467 313.37C102.467 312.51 102.703 311.665 103.15 310.93L119.22 284.31C119.638 283.621 120.224 283.051 120.924 282.652C121.624 282.253 122.414 282.039 123.22 282.03H154C154.836 282.031 155.657 282.254 156.379 282.675C157.101 283.097 157.698 283.702 158.11 284.43L173.11 310.98C173.522 311.708 173.733 312.533 173.72 313.37C173.708 314.206 173.473 315.024 173.04 315.74L156.92 342.44C156.496 343.134 155.901 343.707 155.192 344.105C154.482 344.502 153.683 344.711 152.87 344.71ZM123.22 282.53C122.498 282.529 121.787 282.713 121.156 283.062C120.524 283.412 119.992 283.917 119.61 284.53L103.54 311.16C103.143 311.818 102.933 312.572 102.933 313.34C102.933 314.108 103.143 314.862 103.54 315.52L119.61 342.15C119.992 342.763 120.524 343.268 121.156 343.618C121.787 343.968 122.498 344.151 123.22 344.15H152.87C153.591 344.151 154.3 343.968 154.93 343.618C155.56 343.268 156.09 342.762 156.47 342.15L172.6 315.45C172.982 314.809 173.189 314.079 173.199 313.333C173.21 312.587 173.024 311.851 172.66 311.2L157.66 284.64C157.293 283.99 156.759 283.449 156.115 283.073C155.47 282.697 154.736 282.499 153.99 282.5L123.22 282.53Z" fill="white"/>
<path d="M137.949 341.54C138.766 341.54 139.429 340.877 139.429 340.06C139.429 339.243 138.766 338.58 137.949 338.58C137.131 338.58 136.469 339.243 136.469 340.06C136.469 340.877 137.131 341.54 137.949 341.54Z" fill="#E0E0E0"/>
<path d="M139.419 340.06C139.329 340.06 139.349 339.48 138.729 339.06C138.553 338.942 138.351 338.868 138.141 338.843C137.93 338.819 137.717 338.845 137.519 338.92C137.287 339.013 137.089 339.173 136.949 339.38C136.809 339.587 136.735 339.831 136.735 340.08C136.735 340.33 136.809 340.573 136.949 340.78C137.089 340.987 137.287 341.147 137.519 341.24C137.716 341.319 137.929 341.348 138.14 341.325C138.351 341.303 138.553 341.229 138.729 341.11C139.349 340.67 139.329 340.11 139.419 340.11C139.509 340.11 139.499 340.25 139.469 340.5C139.419 340.865 139.233 341.197 138.949 341.43C138.732 341.612 138.472 341.736 138.193 341.788C137.915 341.841 137.627 341.821 137.359 341.73C137.024 341.611 136.734 341.391 136.528 341.102C136.322 340.812 136.211 340.466 136.209 340.11C136.21 339.756 136.321 339.41 136.527 339.122C136.734 338.833 137.024 338.616 137.359 338.5C137.627 338.408 137.913 338.386 138.192 338.437C138.47 338.488 138.731 338.609 138.949 338.79C139.236 339.025 139.422 339.362 139.469 339.73C139.499 339.93 139.449 340.06 139.419 340.06Z" fill="#263238"/>
<path d="M127.759 308.17L126.409 310.62C126.351 310.729 126.26 310.817 126.149 310.87L122.559 312.43C122.345 312.525 122.175 312.698 122.084 312.913C121.993 313.129 121.988 313.371 122.069 313.59C122.109 313.703 122.171 313.807 122.252 313.896C122.333 313.984 122.432 314.055 122.541 314.105C122.65 314.154 122.768 314.181 122.888 314.184C123.008 314.186 123.127 314.165 123.239 314.12L127.019 312.61C127.103 312.574 127.179 312.52 127.239 312.45L128.599 310.86V315.19C128.613 315.266 128.613 315.344 128.599 315.42L126.419 320.65C126.383 320.737 126.369 320.831 126.378 320.924C126.387 321.018 126.418 321.108 126.469 321.186C126.52 321.265 126.59 321.33 126.671 321.376C126.753 321.422 126.845 321.447 126.939 321.45H127.609L126.529 327.15C126.497 327.298 126.499 327.451 126.535 327.598C126.571 327.744 126.639 327.881 126.736 327.997C126.832 328.114 126.953 328.207 127.091 328.27C127.228 328.333 127.378 328.364 127.529 328.36C127.74 328.357 127.946 328.286 128.114 328.158C128.283 328.031 128.407 327.853 128.469 327.65L130.209 322.08C130.241 321.977 130.303 321.885 130.386 321.815C130.469 321.746 130.571 321.703 130.679 321.69L131.559 321.59L133.349 327.45C133.423 327.705 133.586 327.924 133.808 328.069C134.03 328.214 134.296 328.275 134.559 328.24C134.72 328.219 134.875 328.163 135.013 328.077C135.151 327.991 135.269 327.876 135.358 327.741C135.448 327.605 135.508 327.452 135.534 327.292C135.56 327.131 135.552 326.967 135.509 326.81L134.179 321.73L135.449 321.64C135.536 321.633 135.62 321.606 135.695 321.561C135.77 321.516 135.834 321.454 135.881 321.381C135.928 321.307 135.958 321.224 135.968 321.137C135.978 321.05 135.968 320.962 135.939 320.88L135.419 319.4L138.659 318.68C138.807 318.642 138.934 318.548 139.013 318.417C139.091 318.285 139.115 318.129 139.079 317.98L138.369 315.08C138.336 314.95 138.257 314.836 138.147 314.758C138.037 314.681 137.903 314.646 137.769 314.66L136.319 314.81L136.369 313.14C136.373 313.015 136.418 312.896 136.498 312.799C136.577 312.703 136.687 312.637 136.809 312.61C137.689 312.4 139.719 311.89 140.249 311.29C140.81 310.599 141.318 309.867 141.769 309.1V316C141.768 316.084 141.747 316.166 141.709 316.24C140.946 317.829 140.279 319.462 139.709 321.13C139.709 321.63 139.709 324.75 139.799 326.55C139.807 326.892 139.946 327.217 140.189 327.457C140.431 327.698 140.757 327.835 141.099 327.84C141.447 327.835 141.779 327.692 142.023 327.443C142.266 327.194 142.401 326.859 142.399 326.51V321.22C142.397 321.119 142.421 321.019 142.469 320.93L143.839 318.52C143.907 318.432 144 318.366 144.106 318.331C144.212 318.296 144.326 318.293 144.433 318.323C144.541 318.353 144.637 318.414 144.709 318.5C144.781 318.585 144.826 318.689 144.839 318.8V321.94C144.824 322.013 144.824 322.088 144.839 322.16L146.739 326.89C146.808 327.068 146.918 327.228 147.06 327.357C147.201 327.485 147.371 327.579 147.555 327.632C147.739 327.684 147.932 327.693 148.12 327.658C148.308 327.623 148.486 327.545 148.639 327.43C148.862 327.259 149.024 327.021 149.101 326.751C149.179 326.481 149.167 326.193 149.069 325.93L147.429 321.68C147.379 321.555 147.379 321.415 147.429 321.29L147.639 320.64L153.449 319.28C153.592 319.247 153.716 319.159 153.796 319.036C153.876 318.913 153.906 318.764 153.879 318.62L153.099 314.62C153.078 314.492 153.012 314.376 152.913 314.291C152.814 314.207 152.689 314.161 152.559 314.16H149.999L150.199 311.21C150.25 310.417 150.02 309.631 149.549 308.99L147.999 307C147.749 306.661 147.424 306.385 147.049 306.194C146.674 306.003 146.26 305.902 145.839 305.9H142.599C142.194 305.911 141.799 306.025 141.449 306.229C141.099 306.434 140.807 306.723 140.599 307.07L138.999 309.57C138.937 309.675 138.842 309.756 138.729 309.8L136.469 310.7C136.355 310.747 136.229 310.754 136.11 310.72C135.992 310.685 135.889 310.611 135.819 310.51L134.079 308C133.918 307.779 133.708 307.598 133.465 307.473C133.222 307.348 132.952 307.282 132.679 307.28H129.259C128.952 307.279 128.65 307.361 128.386 307.518C128.122 307.675 127.905 307.9 127.759 308.17Z" fill="#E0E0E0"/>
<path d="M133.729 303.46C133.715 304.005 133.541 304.533 133.228 304.98C132.915 305.426 132.478 305.77 131.971 305.969C131.464 306.168 130.909 306.213 130.377 306.098C129.844 305.983 129.357 305.714 128.976 305.324C128.596 304.934 128.339 304.441 128.238 303.905C128.136 303.37 128.195 302.817 128.407 302.315C128.618 301.812 128.973 301.384 129.427 301.083C129.881 300.781 130.414 300.62 130.959 300.62C131.327 300.624 131.691 300.701 132.03 300.846C132.369 300.991 132.676 301.201 132.933 301.465C133.191 301.729 133.393 302.041 133.53 302.383C133.666 302.726 133.734 303.092 133.729 303.46Z" fill="#E0E0E0"/>
<path d="M147.599 301.38C147.586 301.957 147.402 302.517 147.071 302.989C146.741 303.462 146.278 303.827 145.741 304.038C145.204 304.248 144.616 304.296 144.052 304.174C143.488 304.053 142.973 303.767 142.571 303.354C142.168 302.94 141.897 302.417 141.79 301.85C141.684 301.283 141.747 300.698 141.973 300.166C142.198 299.635 142.575 299.182 143.056 298.865C143.538 298.547 144.102 298.378 144.679 298.38C145.461 298.401 146.204 298.726 146.749 299.287C147.295 299.847 147.6 300.598 147.599 301.38Z" fill="#E0E0E0"/>
<g opacity="0.3">
<path d="M122.479 279.82C121.648 279.819 120.831 280.032 120.107 280.441C119.383 280.849 118.778 281.438 118.349 282.15L100.999 310.88C100.539 311.633 100.295 312.498 100.295 313.38C100.295 314.262 100.539 315.127 100.999 315.88L118.339 344.62L155.689 279.84L122.479 279.82Z" fill="black"/>
</g>
<path d="M138.07 287.69C138.887 287.69 139.55 287.027 139.55 286.21C139.55 285.393 138.887 284.73 138.07 284.73C137.252 284.73 136.59 285.393 136.59 286.21C136.59 287.027 137.252 287.69 138.07 287.69Z" fill="#E0E0E0"/>
<path d="M139.538 286.21C139.458 286.21 139.478 285.62 138.848 285.21C138.672 285.091 138.47 285.017 138.259 284.995C138.048 284.972 137.835 285.001 137.638 285.08C137.407 285.173 137.208 285.333 137.068 285.54C136.929 285.747 136.854 285.991 136.854 286.24C136.854 286.49 136.929 286.733 137.068 286.94C137.208 287.147 137.407 287.307 137.638 287.4C137.836 287.475 138.05 287.501 138.26 287.477C138.471 287.452 138.672 287.378 138.848 287.26C139.478 286.82 139.458 286.21 139.538 286.26C139.618 286.31 139.618 286.39 139.588 286.64C139.542 287.008 139.355 287.345 139.068 287.58C138.85 287.761 138.59 287.882 138.311 287.933C138.033 287.984 137.746 287.962 137.478 287.87C137.143 287.754 136.853 287.537 136.647 287.248C136.441 286.96 136.329 286.615 136.328 286.26C136.33 285.905 136.442 285.558 136.647 285.269C136.853 284.979 137.143 284.759 137.478 284.64C137.747 284.549 138.034 284.529 138.312 284.582C138.591 284.634 138.851 284.758 139.068 284.94C139.352 285.174 139.538 285.506 139.588 285.87C139.618 286.07 139.568 286.21 139.538 286.21Z" fill="#263238"/>
</svg>
